# xmcd
#
# Track frame offsets: 
#        150
#        23285
#        42467
#        58295
#        77062
#        98205
#        117842
#        133777
#        153055
#        170580
#        188312
#        208165
#        225130
#        245670
#        258117
#        278335
#        306542
#        328867
#
# Disc length: 4594 seconds
#
# Revision: 2
# Processed by: cddbd v1.5.2PL0 Copyright (c) Steve Scherf et al.
# Submitted via: ExactAudioCopy v1.3
#
DISCID=e911f012
DTITLE=Various Artist - breeze for Twilight Lovers AOR best selection
DYEAR=2002
DGENRE=AOR
TTITLE0=Boz Scaggs - Simone
TTITLE1=Al Jarreau - Mornin'
TTITLE2=Bobby Caldwell - Special To Me
TTITLE3=RAY Parker Jr. and Raydio - That Old Song
TTITLE4=Patti La Belle - On My Own (With Michael McDonald)
TTITLE5=Midnight Star - Slow Jam
TTITLE6=Peabo Bryson and Roberta Flack - Tonight, I Celebrate My Love
TTITLE7=Sergio Mendes - Never Gonna Let You Go
TTITLE8=Leon Ware - Lost In Love With You
TTITLE9=Christopher Cross - Night Across The World （with Michael McDon
TTITLE9=ald）
TTITLE10=Frankie Bleu - Just For You (Suzanne's Song)
TTITLE11=The Blackbyrds - What We Have Is Right
TTITLE12=Rupert Holmes - Escape (The Pina Colada Song)
TTITLE13=Carole Bayer Sager - Wild Again
TTITLE14=Lou Pardini - Take It Away
TTITLE15=Adrian Gurvitz - Put A Little Love (In Life's Heart)
TTITLE16=Average White Band - Let's Go Round Again
TTITLE17=Nielsen/Pearson - If You Should Sail
EXTD=
EXTT0=
EXTT1=
EXTT2=
EXTT3=
EXTT4=
EXTT5=
EXTT6=
EXTT7=
EXTT8=
EXTT9=
EXTT10=
EXTT11=
EXTT12=
EXTT13=
EXTT14=
EXTT15=
EXTT16=
EXTT17=
PLAYORDER=
